# xmcd CD database file
# Copyright (C) 1993-1998 Ti Kan
# 
# Track frame offsets:
#     220
#     12742
#     27540
#     43027
#     61910
#     89825
#     108980
#     133560
#     152212
#     170452
# 
# Disc length: 2565 seconds
# 
# Revision: 1
# Processed by: cddbd v1.4b41PL1 Copyright (c) Steve Scherf et al.
# Submitted via: DiscPlay 4.0.4
# 
DISCID=890a030a
DTITLE=The Sundogs - Howlin'
DYEAR=1900
DGENRE=
TTITLE0=Pocket Full Of Dough
TTITLE1=Don't Worry About Me
TTITLE2=Don't Get Me Goin'
TTITLE3=Tonight's a Night
TTITLE4=Fog On the Mountaintop
TTITLE5=Calypso-Zydeco
TTITLE6=Act of Desperation
TTITLE7=Fais Do Do
TTITLE8=Fat When I'm Sad
TTITLE9=United We Dance
EXTD=
EXTT0=
EXTT1=
EXTT2=
EXTT3=
EXTT4=
EXTT5=
EXTT6=
EXTT7=
EXTT8=
EXTT9=
PLAYORDER=
